<svg xmlns="http://www.w3.org/2000/svg" viewBox="0 0 1000 1000"><title>mark-text-dark</title><g id="7f56c996-081b-4bc5-b921-5f56e736476b" data-name="Layer 1"><path d="M405.73,483.73c.19-1.84.73-6.44-6.78-6.44-5.37,0-7.83,3.37-8.26,5.67-.85,4.6,4.95,7.21,11.33,9.2,13.68,4,28.21,8.28,24.81,26.68-3.32,17.94-21.15,29-40,29-12.88,0-31.27-5.83-29.43-28.21h25.29c-.37,7.82,7.14,7.82,8.22,7.82,4.29,0,9.34-2.46,10.11-6.6,1.22-6.59-4.92-7.36-20-13.64-10.39-3.53-18.26-10.73-16.13-22.23C368,468.09,385.4,456.9,403,456.9c11.19,0,29.68,4.44,27.69,26.83Z" fill="#263238"/><path d="M495.91,457.05c31,0,41.33,24.38,37.47,45.23s-23.24,45.23-54.21,45.23-41.33-24.38-37.48-45.23S464.94,457.05,495.91,457.05Zm-12.34,66.7c11,0,22.06-9,24.36-21.47s-5.38-21.46-16.42-21.46-22.07,9-24.36,21.46S472.53,523.75,483.57,523.75Z" fill="#263238"/><path d="M618.71,544.9H594.63l1.68-9H596c-7.23,10.88-17.82,11.8-24.26,11.8-5.21,0-17.25-1.22-23-10.73-5.18-8.43-5-14.56-2.81-26.22l9.42-50.9h25.45l-8.71,47.07c-1.08,5.83-3.15,17,10.5,17,7.35,0,15.27-3.83,17.77-17.33L609,459.81h25.45Z" fill="#263238"/><path d="M664.22,431.45h25.45l-21,113.45H643.23Z" fill="#263238"/><path d="M715.5,479.13H706l3.57-19.32h9.51l.82-4.45c4.43-23.91,24.91-26.06,37.33-26.06h3.68l-3.55,19.17h-2.91c-2.15,0-8,.76-9.29,8l-.63,3.37h10.73l-3.57,19.32H741L728.78,544.9H703.33Z" fill="#263238"/><path d="M783.66,544.9H758.21L774,459.81h25.46Zm17.42-94.13H775.63l3.57-19.32h25.45Z" fill="#263238"/><path d="M854.45,459.81h12.26l-3.57,19.32H850.87L838.7,544.9H813.25l12.17-65.77H812.85l3.57-19.32H829l5.24-28.36h25.45Z" fill="#263238"/><path d="M218.71,576.48l9.3-8.4c45.81-41.64,76.08-69.14,76.08-100.92a43.57,43.57,0,0,0-44-44A48.42,48.42,0,0,0,223.64,440l-4.95,5.81h0a90.83,90.83,0,0,0-16.42,35C194.84,515.08,200.26,545,218.71,576.48Z" fill="#03c1f4"/><path d="M187.5,475.33c5.2-17,15-30.82,22.28-39.39a48.44,48.44,0,0,0-32.45-12.82,43.58,43.58,0,0,0-44,44c0,27.69,23,52.13,59.2,85.45C178.89,522.13,181.53,494.85,187.5,475.33Z" fill="#f43136"/></g></svg>