<svg xmlns="http://www.w3.org/2000/svg" viewBox="0 0 1000 1000"><title>mark-text-white</title><g id="f6653d85-88cf-4a53-b750-804a07fa59cb" data-name="Layer 1"><path d="M405.73,483.93c.19-1.84.73-6.44-6.78-6.44-5.37,0-7.83,3.37-8.26,5.67-.85,4.6,4.95,7.21,11.33,9.2,13.68,4,28.21,8.28,24.81,26.68-3.32,17.94-21.15,29-40,29-12.88,0-31.27-5.83-29.43-28.21h25.29c-.37,7.82,7.14,7.82,8.22,7.82,4.29,0,9.34-2.46,10.11-6.6,1.22-6.59-4.92-7.36-20-13.64-10.39-3.53-18.26-10.74-16.13-22.23C368,468.29,385.4,457.1,403,457.1c11.19,0,29.68,4.44,27.69,26.83Z" fill="#fff"/><path d="M495.91,457.25c31,0,41.33,24.38,37.47,45.23s-23.24,45.23-54.21,45.23-41.33-24.38-37.48-45.23S464.94,457.25,495.91,457.25ZM483.57,524c11,0,22.06-9.05,24.36-21.47S502.55,481,491.51,481s-22.07,9-24.36,21.46S472.53,524,483.57,524Z" fill="#fff"/><path d="M618.71,545.1H594.63l1.68-9H596c-7.23,10.88-17.82,11.8-24.26,11.8-5.21,0-17.25-1.22-23-10.73-5.18-8.43-5-14.56-2.81-26.22l9.42-50.9h25.45l-8.71,47.07c-1.08,5.83-3.15,17,10.5,17,7.35,0,15.27-3.83,17.77-17.33L609,460h25.45Z" fill="#fff"/><path d="M664.22,431.65h25.45l-21,113.45H643.23Z" fill="#fff"/><path d="M715.5,479.33H706L709.56,460h9.51l.82-4.45c4.43-23.91,24.91-26.06,37.33-26.06h3.68l-3.55,19.16h-2.91c-2.15,0-8,.77-9.29,8l-.63,3.37h10.73l-3.57,19.32H741L728.78,545.1H703.33Z" fill="#fff"/><path d="M783.66,545.1H758.21L774,460h25.46ZM801.08,451H775.63l3.57-19.31h25.45Z" fill="#fff"/><path d="M854.45,460h12.26l-3.57,19.32H850.87L838.7,545.1H813.25l12.17-65.77H812.85L816.42,460H829l5.24-28.36h25.45Z" fill="#fff"/><path d="M218.71,576.68l9.3-8.4c45.81-41.64,76.08-69.14,76.08-100.92a43.57,43.57,0,0,0-44-44,48.42,48.42,0,0,0-36.41,16.92l-4.95,5.81h0a90.83,90.83,0,0,0-16.42,35C194.84,515.28,200.26,545.22,218.71,576.68Z" fill="#03c1f4"/><path d="M187.5,475.53c5.2-17,15-30.82,22.28-39.39a48.44,48.44,0,0,0-32.45-12.82,43.57,43.57,0,0,0-44,44c0,27.69,23,52.13,59.2,85.45C178.89,522.33,181.53,495.05,187.5,475.53Z" fill="#f43136"/></g></svg>