<svg xmlns="http://www.w3.org/2000/svg" viewBox="0 0 1000 1000"><title>mark</title><g id="60c7e032-3824-4e2a-ab9e-556d71a0d403" data-name="Layer 1"><path d="M500.06,757.8l31.26-28.25c154-140,255.79-232.45,255.79-339.27,0-83-65-148.08-148.07-148.08-46.31,0-92.07,21.27-122.4,56.89L500,318.63l0-.05c-18.36,24.22-43.83,65.19-55.2,117.68C419.82,551.36,438,652,500.06,757.8Z" fill="#03c1f4"/><path d="M395.15,417.74c17.46-57.07,50.54-103.61,74.91-132.43C440.47,258.07,400.94,242.2,361,242.2c-83,0-148.08,65-148.08,148.08,0,93.08,77.25,175.24,199,287.26C366.18,575.06,375.06,483.36,395.15,417.74Z" fill="#f43136"/></g></svg>